<?xml version="1.0" encoding="UTF-8" standalone="no"?>
<!-- Created with Inkscape (http://www.inkscape.org/) -->

<svg
   width="66.364502mm"
   height="91.119652mm"
   viewBox="0 0 66.364502 91.119652"
   version="1.1"
   id="svg1"
   xml:space="preserve"
   inkscape:version="1.4.2 (f4327f4, 2025-05-13)"
   sodipodi:docname="slide3.sin.fondo.svg"
   xmlns:inkscape="http://www.inkscape.org/namespaces/inkscape"
   xmlns:sodipodi="http://sodipodi.sourceforge.net/DTD/sodipodi-0.dtd"
   xmlns="http://www.w3.org/2000/svg"
   xmlns:svg="http://www.w3.org/2000/svg"><sodipodi:namedview
     id="namedview1"
     pagecolor="#ffffff"
     bordercolor="#000000"
     borderopacity="0.25"
     inkscape:showpageshadow="2"
     inkscape:pageopacity="0.0"
     inkscape:pagecheckerboard="0"
     inkscape:deskcolor="#d1d1d1"
     inkscape:document-units="mm"
     inkscape:zoom="1.2472578"
     inkscape:cx="110.24184"
     inkscape:cy="157.54562"
     inkscape:window-width="1416"
     inkscape:window-height="1041"
     inkscape:window-x="0"
     inkscape:window-y="0"
     inkscape:window-maximized="0"
     inkscape:current-layer="layer10" /><defs
     id="defs1" /><g
     inkscape:groupmode="layer"
     id="layer10"
     inkscape:label="capucha"
     style="display:inline"
     transform="translate(-71.350087,-95.396919)"><path
       style="fill:#a02c5a;stroke:#50162d;stroke-width:0.4;stroke-linecap:round;stroke-linejoin:round;stroke-dasharray:none;paint-order:markers fill stroke"
       d="m 102.85763,143.4273 -7.156716,-0.11388 c -0.462279,2.22176 0.466381,6.89752 2.834009,7.6569 z"
       id="path11"
       sodipodi:nodetypes="cccc" /><path
       style="fill:#a02c5a;stroke:#50162d;stroke-width:0.4;stroke-linecap:round;stroke-linejoin:round;stroke-dasharray:none;paint-order:markers fill stroke"
       d="m 119.80156,143.34822 c 0.58337,0.3182 7.63676,0.90156 7.63676,0.90156 0.17228,2.90452 -1.71424,6.03778 -3.39411,6.89429 z"
       id="path12"
       sodipodi:nodetypes="cccc" /></g><g
     inkscape:groupmode="layer"
     id="layer13"
     inkscape:label="cuerpo"
     style="display:inline"
     transform="translate(-71.350087,-95.396919)"><path
       style="fill:#a02c5a;fill-opacity:1;stroke:#50162d;stroke-width:0.4;stroke-linecap:round;stroke-linejoin:round;stroke-dasharray:none;stroke-opacity:1;paint-order:markers fill stroke"
       d="m 102.45,142.95 c -4.860807,9.54933 -4.191172,23.70736 -5.850002,35.925 8.825002,0.43922 17.650002,0.38181 26.475002,-0.675 0.0681,-11.76914 0.3381,-23.62804 -3.3,-33.75 z"
       id="path19"
       sodipodi:nodetypes="ccccc"
       inkscape:label="cuerpo" /><path
       style="fill:#333333;fill-opacity:1;stroke:#000000;stroke-width:0.4;stroke-linecap:round;stroke-linejoin:round;stroke-dasharray:none;stroke-opacity:1;paint-order:markers fill stroke"
       d="m 109.875,147.3 -1.875,31.425 3.6,0.075 1.5,-31.875 z"
       id="path20" /></g><g
     inkscape:groupmode="layer"
     id="layer14"
     inkscape:label="maza"
     style="display:inline"
     transform="translate(-71.350087,-95.396919)"><path
       style="fill:#784421;fill-opacity:1;stroke:#333333;stroke-width:1.2;stroke-linecap:round;stroke-linejoin:round;stroke-dasharray:none;stroke-opacity:1;paint-order:markers fill stroke"
       d="m 71.950087,180.9 5.400001,-0.225"
       id="path23"
       sodipodi:nodetypes="cc" /><path
       style="fill:#784421;fill-opacity:1;stroke:#502d16;stroke-width:0.4;stroke-linecap:round;stroke-linejoin:round;stroke-dasharray:none;stroke-opacity:1;paint-order:markers fill stroke"
       d="m 82.943625,179.03943 54.570965,-2.43951 -0.053,2.49255 -54.358836,3.07591 z"
       id="path21"
       sodipodi:nodetypes="ccccc" /><path
       style="fill:#784421;fill-opacity:1;stroke:#502d16;stroke-width:0.4;stroke-linecap:round;stroke-linejoin:round;stroke-dasharray:none;stroke-opacity:1;paint-order:markers fill stroke"
       d="m 76.834186,174.50992 6.084748,-0.097 0.193934,11.83245 -6.106713,0.0712 z"
       id="path22"
       sodipodi:nodetypes="ccccc" /></g><g
     inkscape:groupmode="layer"
     id="layer11"
     inkscape:label="brazo 1"
     transform="translate(-71.350087,-95.396919)"><path
       style="fill:#a02c5a;stroke:#50162d;stroke-width:0.4;stroke-linecap:round;stroke-linejoin:round;stroke-dasharray:none;paint-order:markers fill stroke"
       d="m 102.3,143.175 c -4.282865,7.05048 -8.490534,14.36952 -11.4,26.325 l 7.425,-2.4 c 0.330152,-8.24496 0.90316,-16.46338 3.975,-23.925 z"
       id="path13"
       sodipodi:nodetypes="cccc" /><path
       style="fill:#ffccaa;fill-opacity:1;stroke:#ff9955;stroke-width:0.4;stroke-linecap:round;stroke-linejoin:round;stroke-opacity:1;paint-order:markers fill stroke"
       d="m 96.315825,172.47916 0.71783,3.91378 2.121315,0.6364 0.21213,0.97922 c -1.470475,-0.11658 -1.574605,3.11415 -0.21213,3.41985 l -0.1591,0.95726 c -0.587205,0.72488 -1.029185,1.61314 -2.704675,1.1137 -1.27973,0.66939 -3.10212,0.31713 -3.50018,-0.42427 -1.38115,0.64097 -1.49303,-0.0368 -2.174353,-0.79549 l 0.424263,-4.61388 1.69706,-1.16672 -0.40874,-2.60239 z"
       id="path40-8"
       sodipodi:nodetypes="ccccccccccccc" /><path
       style="fill:#782144;stroke:#50162d;stroke-width:0.4;stroke-linecap:round;stroke-linejoin:round;stroke-dasharray:none;paint-order:markers fill stroke"
       d="m 90.149999,175.575 -1.087499,-5.625 10.387498,-3.4125 1.237502,5.175 z"
       id="path14"
       sodipodi:nodetypes="ccccc" /></g><g
     inkscape:groupmode="layer"
     id="layer12"
     inkscape:label="brazo 2"
     transform="translate(-71.350087,-95.396919)"><path
       style="fill:#a02c5a;fill-opacity:1;stroke:#50162d;stroke-width:0.4;stroke-linecap:round;stroke-linejoin:round;stroke-dasharray:none;stroke-opacity:1;paint-order:markers fill stroke"
       d="m 119.11214,143.71945 c 2.98208,5.80509 3.76982,14.50821 4.24264,24.18305 l 6.68215,1.48493 c 0.90804,-3.76262 -5.03359,-21.73374 -10.92479,-25.66798 z"
       id="path16"
       sodipodi:nodetypes="cccc" /><path
       style="fill:#ffccaa;fill-opacity:1;stroke:#ff9955;stroke-width:0.4;stroke-linecap:round;stroke-linejoin:round;stroke-opacity:1;paint-order:markers fill stroke"
       d="m 123.56691,172.46334 -0.53033,2.86378 -2.12132,0.6364 -0.21213,0.97922 c 1.47048,-0.11658 1.57461,3.11415 0.21213,3.41985 l 0.1591,0.95726 c 0.58721,0.72488 1.02919,1.61314 2.70468,1.1137 1.27973,0.66939 3.10212,0.31713 3.50018,-0.42427 1.38115,0.64097 1.49303,-0.0368 2.17435,-0.79549 l -0.42426,-4.61388 -1.69706,-1.16672 0.37124,-2.22739 z"
       id="path40"
       sodipodi:nodetypes="ccccccccccccc" /><path
       style="display:inline;fill:#782144;fill-opacity:1;stroke:#50162d;stroke-width:0.4;stroke-linecap:round;stroke-linejoin:round;stroke-dasharray:none;stroke-opacity:1;paint-order:markers fill stroke"
       d="m 121.49862,166.89488 -1.16672,4.71993 10.39446,3.44715 1.21976,-5.51543 z"
       id="path17"
       sodipodi:nodetypes="ccccc" /></g><g
     inkscape:groupmode="layer"
     id="layer9"
     inkscape:label="cara"
     transform="translate(-71.350087,-95.396919)"><path
       style="fill:#808080;fill-opacity:1;stroke:#1a1a1a;stroke-width:0.4;stroke-linecap:round;stroke-linejoin:round;stroke-dasharray:none;stroke-opacity:1;paint-order:markers fill stroke"
       d="m 126.69586,132.90072 c 0.61891,-4.28601 3.88908,-6.53258 10.02323,-6.57609 -2.02728,4.29411 -5.17042,6.80284 -10.02323,6.57609 z"
       id="path24"
       sodipodi:nodetypes="ccc" /><path
       style="fill:#808080;fill-opacity:1;stroke:#1a1a1a;stroke-width:0.4;stroke-linecap:round;stroke-linejoin:round;stroke-dasharray:none;stroke-opacity:1;paint-order:markers fill stroke"
       d="m 126.6,132.8625 c 7.11102,1.74327 6.2958,6.48956 6.4875,9.1125 -3.46758,-1.67028 -7.10236,-3.16538 -6.4875,-9.1125 z"
       id="path25"
       sodipodi:nodetypes="ccc" /><path
       d="m 126.63671,132.32887 -28.014823,-7.50548 a 14.902276,14.902276 0 0 0 -1.783353,7.06985 14.902276,14.902276 0 0 0 14.901936,14.90193 14.902276,14.902276 0 0 0 14.89624,-14.4663 z"
       style="fill:#ffccaa;stroke:#ff9955;stroke-width:0.4;stroke-linecap:round;stroke-linejoin:round;paint-order:markers fill stroke"
       id="path6"
       inkscape:label="cara" /><path
       d="m 111.74047,116.99079 a 14.902276,14.902276 0 0 0 -13.118583,7.8326 l 28.014823,7.50548 a 14.902276,14.902276 0 0 0 0.006,-0.43563 14.902276,14.902276 0 0 0 -14.90245,-14.90245 z"
       style="fill:#808080;stroke:#1a1a1a;stroke-width:0.4;stroke-linecap:round;stroke-linejoin:round;paint-order:markers fill stroke"
       id="path5"
       inkscape:label="panyuelo" /><g
       id="g6"
       inkscape:label="ojos"><ellipse
         style="fill:#000000;stroke:#000000;stroke-width:0.4;stroke-linecap:round;stroke-linejoin:round;paint-order:markers fill stroke"
         id="path5-1"
         cx="106.83624"
         cy="132.41415"
         rx="1.3258252"
         ry="2.6516504"
         inkscape:label="ojo 1" /><ellipse
         style="fill:#000000;stroke:#000000;stroke-width:0.4;stroke-linecap:round;stroke-linejoin:round;paint-order:markers fill stroke"
         id="path5-5"
         cx="115.79456"
         cy="132.7204"
         rx="1.3258252"
         ry="2.6516504"
         inkscape:label="ojo 1" /></g><path
       style="fill:#ff7f2a;stroke:#d45500;stroke-width:0.4;stroke-linecap:round;stroke-linejoin:round;paint-order:markers fill stroke"
       d="m 111.32906,133.92877 -2.65165,5.3033 4.87904,0.21213 z"
       id="path7"
       sodipodi:nodetypes="cccc"
       inkscape:label="nariz" /><g
       id="g11"
       inkscape:label="boca"
       transform="rotate(-4.0145112,198.15997,-365.65605)"><ellipse
         style="fill:#ffffff;stroke:#000000;stroke-width:0.400008;stroke-linecap:round;stroke-linejoin:round;stroke-dasharray:none;paint-order:markers fill stroke"
         id="path8"
         cx="75.993202"
         cy="138.10274"
         rx="7.4086719"
         ry="3.0133722"
         transform="matrix(0.99998982,-0.00451231,-0.00424099,0.99999101,0,0)" /><g
         id="g10"
         transform="translate(-0.83330821,-10.556244)"
         style="stroke:#000000"><path
           style="fill:none;stroke:#000000;stroke-width:0.4;stroke-linecap:round;stroke-linejoin:round;stroke-dasharray:none;paint-order:markers fill stroke"
           d="M 69.964545,148.5 H 82.489547"
           id="path9" /><path
           style="fill:#1a1a1a;stroke:#000000;stroke-width:0.4;stroke-linecap:round;stroke-linejoin:round;stroke-dasharray:none;paint-order:markers fill stroke"
           d="m 76.220795,149.49596 -0.01671,-2.19944"
           id="path10-4" /><path
           style="fill:#1a1a1a;stroke:#000000;stroke-width:0.4;stroke-linecap:round;stroke-linejoin:round;stroke-dasharray:none;paint-order:markers fill stroke"
           d="m 80.094869,149.30862 -0.06922,-1.45129"
           id="path10-4-8" /><path
           style="fill:#1a1a1a;stroke:#000000;stroke-width:0.4;stroke-linecap:round;stroke-linejoin:round;stroke-dasharray:none;paint-order:markers fill stroke"
           d="m 72.765745,149.17017 -0.07184,-1.41387"
           id="path10-4-7" /></g></g></g><g
     inkscape:groupmode="layer"
     id="layer15"
     inkscape:label="engranajes"
     transform="translate(-71.350087,-95.396919)"><g
       id="g28"
       transform="translate(-3.3,0.75000001)"><path
         id="path26"
         style="fill:#afc6e9;fill-opacity:1;stroke:#5f8dd3;stroke-width:0.399999;stroke-linecap:round;stroke-linejoin:round;stroke-dasharray:none;stroke-opacity:1;paint-order:markers fill stroke"
         d="m 109.83749,102.30518 v 1.44022 a 4.5374999,4.5374999 0 0 0 -1.15238,0.47698 l -1.01855,-1.01803 -1.61747,1.61747 1.01855,1.01854 a 4.5374999,4.5374999 0 0 0 -0.4775,1.15187 h -1.44022 v 2.28772 h 1.44022 a 4.5374999,4.5374999 0 0 0 0.4775,1.15238 l -1.01855,1.01854 1.61747,1.61748 1.01855,-1.01855 a 4.5374999,4.5374999 0 0 0 1.15238,0.47749 v 1.44023 h 2.28772 v -1.44023 a 4.5374999,4.5374999 0 0 0 1.15187,-0.47749 l 1.01854,1.01855 1.61747,-1.61748 -1.01803,-1.01854 a 4.5374999,4.5374999 0 0 0 0.47698,-1.15238 h 1.44022 v -2.28772 h -1.44022 a 4.5374999,4.5374999 0 0 0 -0.47698,-1.15238 l 1.01803,-1.01803 -1.61747,-1.61747 -1.01803,1.01803 a 4.5374999,4.5374999 0 0 0 -1.15238,-0.47698 v -1.44022 z m 1.1436,4.10621 a 1.725,1.725 0 0 1 1.72496,1.72496 1.725,1.725 0 0 1 -1.72496,1.72496 1.725,1.725 0 0 1 -1.72496,-1.72496 1.725,1.725 0 0 1 1.72496,-1.72496 z" /><path
         id="path27"
         style="fill:#87aade;fill-opacity:1;stroke:#5f8dd3;stroke-width:0.4;stroke-linecap:round;stroke-linejoin:round;stroke-dasharray:none;stroke-opacity:1;paint-order:markers fill stroke"
         d="m 110.98134,104.23653 a 3.8999999,3.8999999 0 0 0 -3.90002,3.90002 3.8999999,3.8999999 0 0 0 3.90002,3.90002 3.8999999,3.8999999 0 0 0 3.8995,-3.90002 3.8999999,3.8999999 0 0 0 -3.8995,-3.90002 z m 0,1.42472 a 2.4750001,2.4750001 0 0 1 2.47478,2.4753 2.4750001,2.4750001 0 0 1 -2.47478,2.47479 2.4750001,2.4750001 0 0 1 -2.4753,-2.47479 2.4750001,2.4750001 0 0 1 2.4753,-2.4753 z" /></g><g
       id="g29"
       transform="rotate(-19.531382,118.31454,153.21561)"><path
         id="path28"
         style="fill:#afc6e9;fill-opacity:1;stroke:#5f8dd3;stroke-width:0.399999;stroke-linecap:round;stroke-linejoin:round;stroke-dasharray:none;stroke-opacity:1;paint-order:markers fill stroke"
         d="m 109.83749,102.30518 v 1.44022 a 4.5374999,4.5374999 0 0 0 -1.15238,0.47698 l -1.01855,-1.01803 -1.61747,1.61747 1.01855,1.01854 a 4.5374999,4.5374999 0 0 0 -0.4775,1.15187 h -1.44022 v 2.28772 h 1.44022 a 4.5374999,4.5374999 0 0 0 0.4775,1.15238 l -1.01855,1.01854 1.61747,1.61748 1.01855,-1.01855 a 4.5374999,4.5374999 0 0 0 1.15238,0.47749 v 1.44023 h 2.28772 v -1.44023 a 4.5374999,4.5374999 0 0 0 1.15187,-0.47749 l 1.01854,1.01855 1.61747,-1.61748 -1.01803,-1.01854 a 4.5374999,4.5374999 0 0 0 0.47698,-1.15238 h 1.44022 v -2.28772 h -1.44022 a 4.5374999,4.5374999 0 0 0 -0.47698,-1.15238 l 1.01803,-1.01803 -1.61747,-1.61747 -1.01803,1.01803 a 4.5374999,4.5374999 0 0 0 -1.15238,-0.47698 v -1.44022 z m 1.1436,4.10621 a 1.725,1.725 0 0 1 1.72496,1.72496 1.725,1.725 0 0 1 -1.72496,1.72496 1.725,1.725 0 0 1 -1.72496,-1.72496 1.725,1.725 0 0 1 1.72496,-1.72496 z" /><path
         id="path29"
         style="fill:#87aade;fill-opacity:1;stroke:#5f8dd3;stroke-width:0.4;stroke-linecap:round;stroke-linejoin:round;stroke-dasharray:none;stroke-opacity:1;paint-order:markers fill stroke"
         d="m 110.98134,104.23653 a 3.8999999,3.8999999 0 0 0 -3.90002,3.90002 3.8999999,3.8999999 0 0 0 3.90002,3.90002 3.8999999,3.8999999 0 0 0 3.8995,-3.90002 3.8999999,3.8999999 0 0 0 -3.8995,-3.90002 z m 0,1.42472 a 2.4750001,2.4750001 0 0 1 2.47478,2.4753 2.4750001,2.4750001 0 0 1 -2.47478,2.47479 2.4750001,2.4750001 0 0 1 -2.4753,-2.47479 2.4750001,2.4750001 0 0 1 2.4753,-2.4753 z" /></g></g><g
     inkscape:groupmode="layer"
     id="layer16"
     inkscape:label="raiz cuadrada"
     transform="translate(-71.350087,-95.396919)"><path
       style="fill:none;fill-opacity:1;stroke:#668000;stroke-width:1;stroke-linecap:round;stroke-linejoin:round;stroke-dasharray:none;stroke-opacity:1;paint-order:markers fill stroke"
       d="m 119.25,107.9625 0.7875,4.9875 4.9875,-6.8625 7.9875,6.3375"
       id="path30" /><path
       style="fill:none;fill-opacity:1;stroke:#668000;stroke-width:1;stroke-linecap:round;stroke-linejoin:round;stroke-dasharray:none;stroke-opacity:1;paint-order:markers fill stroke"
       d="m 123.0375,110.6625 2.7,1.8"
       id="path31" /><path
       style="fill:none;fill-opacity:1;stroke:#668000;stroke-width:1;stroke-linecap:round;stroke-linejoin:round;stroke-dasharray:none;stroke-opacity:1;paint-order:markers fill stroke"
       d="m 123.3,113.0625 1.9875,-2.925"
       id="path32" /><path
       style="fill:none;fill-opacity:1;stroke:#668000;stroke-width:1;stroke-linecap:round;stroke-linejoin:round;stroke-dasharray:none;stroke-opacity:1;paint-order:markers fill stroke"
       d="m 128.1375,111.225 -0.45,4.575"
       id="path33"
       sodipodi:nodetypes="cc" /><path
       style="fill:none;fill-opacity:1;stroke:#668000;stroke-width:1;stroke-linecap:round;stroke-linejoin:round;stroke-dasharray:none;stroke-opacity:1;paint-order:markers fill stroke"
       d="m 125.8125,114.2625 4.425,-1.425"
       id="path34"
       sodipodi:nodetypes="cc" /><path
       style="fill:none;fill-opacity:1;stroke:#000000;stroke-width:0.6;stroke-linecap:round;stroke-linejoin:round;stroke-dasharray:none;stroke-opacity:1;paint-order:markers fill stroke"
       d="m 95.56548,126.11249 c -4.906691,4.27998 -11.369028,2.66656 -7.374253,-4.6112"
       id="path35"
       sodipodi:nodetypes="cc" /><path
       style="fill:none;fill-opacity:1;stroke:#000000;stroke-width:0.600001;stroke-linecap:round;stroke-linejoin:round;stroke-dasharray:none;stroke-opacity:1;paint-order:markers fill stroke"
       d="m 127.70348,117.94541 c 6.06335,2.48125 11.52306,-1.2142 5.25027,-9.17471"
       id="path36"
       sodipodi:nodetypes="cc" /><path
       style="fill:none;fill-opacity:1;stroke:#000000;stroke-width:0.600001;stroke-linecap:round;stroke-linejoin:round;stroke-dasharray:none;stroke-opacity:1;paint-order:markers fill stroke"
       d="m 109.46013,98.74746 c 9.2874,-7.213808 16.98996,0.01313 10.71267,4.826"
       id="path37"
       sodipodi:nodetypes="cc" /></g></svg>
